<svg xmlns="http://www.w3.org/2000/svg" xmlns:xlink="http://www.w3.org/1999/xlink" version="1.1" class="marks" width="531" height="347" viewBox="0 0 531 347"><rect width="531" height="347" fill="#2e2157"/><g fill="none" stroke-miterlimit="10" transform="translate(47,10)"><g class="mark-group role-frame root" role="graphics-object" aria-roledescription="group mark container"><g transform="translate(0,0)"><path class="background" aria-hidden="true" d="M0.5,0.5h400v300h-400Z" stroke="#ddd"/><g><g class="mark-group role-axis" role="graphics-symbol" aria-roledescription="axis" aria-label="X-axis for a linear scale with values from -4 to 4"><g transform="translate(0.5,300.5)"><path class="background" aria-hidden="true" d="M0,0h0v0h0Z" pointer-events="none"/><g><g class="mark-rule role-axis-grid" pointer-events="none"><line transform="translate(0,-300)" x2="0" y2="300" stroke="#2A3459" stroke-width="1" opacity="1"/><line transform="translate(50,-300)" x2="0" y2="300" stroke="#2A3459" stroke-width="1" opacity="1"/><line transform="translate(100,-300)" x2="0" y2="300" stroke="#2A3459" stroke-width="1" opacity="1"/><line transform="translate(150,-300)" x2="0" y2="300" stroke="#2A3459" stroke-width="1" opacity="1"/><line transform="translate(200,-300)" x2="0" y2="300" stroke="#2A3459" stroke-width="1" opacity="1"/><line transform="translate(250,-300)" x2="0" y2="300" stroke="#2A3459" stroke-width="1" opacity="1"/><line transform="translate(300,-300)" x2="0" y2="300" stroke="#2A3459" stroke-width="1" opacity="1"/><line transform="translate(350,-300)" x2="0" y2="300" stroke="#2A3459" stroke-width="1" opacity="1"/><line transform="translate(400,-300)" x2="0" y2="300" stroke="#2A3459" stroke-width="1" opacity="1"/></g></g><path class="foreground" aria-hidden="true" d="" pointer-events="none" display="none"/></g></g><g class="mark-group role-axis" role="graphics-symbol" aria-roledescription="axis" aria-label="Y-axis for a linear scale with values from 0.0 to 0.4"><g transform="translate(0.5,0.5)"><path class="background" aria-hidden="true" d="M0,0h0v0h0Z" pointer-events="none"/><g><g class="mark-rule role-axis-grid" pointer-events="none"><line transform="translate(0,300)" x2="400" y2="0" stroke="#2A3459" stroke-width="1" opacity="1"/><line transform="translate(0,263)" x2="400" y2="0" stroke="#2A3459" stroke-width="1" opacity="1"/><line transform="translate(0,225)" x2="400" y2="0" stroke="#2A3459" stroke-width="1" opacity="1"/><line transform="translate(0,188)" x2="400" y2="0" stroke="#2A3459" stroke-width="1" opacity="1"/><line transform="translate(0,150)" x2="400" y2="0" stroke="#2A3459" stroke-width="1" opacity="1"/><line transform="translate(0,113)" x2="400" y2="0" stroke="#2A3459" stroke-width="1" opacity="1"/><line transform="translate(0,75)" x2="400" y2="0" stroke="#2A3459" stroke-width="1" opacity="1"/><line transform="translate(0,38)" x2="400" y2="0" stroke="#2A3459" stroke-width="1" opacity="1"/><line transform="translate(0,0)" x2="400" y2="0" stroke="#2A3459" stroke-width="1" opacity="1"/></g></g><path class="foreground" aria-hidden="true" d="" pointer-events="none" display="none"/></g></g><g class="mark-group role-axis" role="graphics-symbol" aria-roledescription="axis" aria-label="X-axis titled 'x-range' for a linear scale with values from -4 to 4"><g transform="translate(0.5,300.5)"><path class="background" aria-hidden="true" d="M0,0h0v0h0Z" pointer-events="none"/><g><g class="mark-rule role-axis-tick" pointer-events="none"><line transform="translate(0,0)" x2="0" y2="5" stroke-width="1" opacity="1"/><line transform="translate(50,0)" x2="0" y2="5" stroke-width="1" opacity="1"/><line transform="translate(100,0)" x2="0" y2="5" stroke-width="1" opacity="1"/><line transform="translate(150,0)" x2="0" y2="5" stroke-width="1" opacity="1"/><line transform="translate(200,0)" x2="0" y2="5" stroke-width="1" opacity="1"/><line transform="translate(250,0)" x2="0" y2="5" stroke-width="1" opacity="1"/><line transform="translate(300,0)" x2="0" y2="5" stroke-width="1" opacity="1"/><line transform="translate(350,0)" x2="0" y2="5" stroke-width="1" opacity="1"/><line transform="translate(400,0)" x2="0" y2="5" stroke-width="1" opacity="1"/></g><g class="mark-text role-axis-label" pointer-events="none"><text text-anchor="start" transform="translate(0,15)" font-family="sans-serif" font-size="10px" fill="#D3D3D3" opacity="1">-4</text><text text-anchor="middle" transform="translate(50,15)" font-family="sans-serif" font-size="10px" fill="#D3D3D3" opacity="1">-3</text><text text-anchor="middle" transform="translate(100,15)" font-family="sans-serif" font-size="10px" fill="#D3D3D3" opacity="1">-2</text><text text-anchor="middle" transform="translate(150,15)" font-family="sans-serif" font-size="10px" fill="#D3D3D3" opacity="1">-1</text><text text-anchor="middle" transform="translate(200,15)" font-family="sans-serif" font-size="10px" fill="#D3D3D3" opacity="1">0</text><text text-anchor="middle" transform="translate(250,15)" font-family="sans-serif" font-size="10px" fill="#D3D3D3" opacity="1">1</text><text text-anchor="middle" transform="translate(300,15)" font-family="sans-serif" font-size="10px" fill="#D3D3D3" opacity="1">2</text><text text-anchor="middle" transform="translate(350,15)" font-family="sans-serif" font-size="10px" fill="#D3D3D3" opacity="1">3</text><text text-anchor="end" transform="translate(400,15)" font-family="sans-serif" font-size="10px" fill="#D3D3D3" opacity="1">4</text></g><g class="mark-rule role-axis-domain" pointer-events="none"><line transform="translate(0,0)" x2="400" y2="0" stroke-width="1" opacity="1"/></g><g class="mark-text role-axis-title" pointer-events="none"><text text-anchor="middle" transform="translate(200,30)" font-family="sans-serif" font-size="11px" font-weight="bold" fill="#D3D3D3" opacity="1">x-range</text></g></g><path class="foreground" aria-hidden="true" d="" pointer-events="none" display="none"/></g></g><g class="mark-group role-axis" role="graphics-symbol" aria-roledescription="axis" aria-label="Y-axis titled 'gaussian pdf' for a linear scale with values from 0.0 to 0.4"><g transform="translate(0.5,0.5)"><path class="background" aria-hidden="true" d="M0,0h0v0h0Z" pointer-events="none"/><g><g class="mark-rule role-axis-tick" pointer-events="none"><line transform="translate(0,300)" x2="-5" y2="0" stroke-width="1" opacity="1"/><line transform="translate(0,263)" x2="-5" y2="0" stroke-width="1" opacity="1"/><line transform="translate(0,225)" x2="-5" y2="0" stroke-width="1" opacity="1"/><line transform="translate(0,188)" x2="-5" y2="0" stroke-width="1" opacity="1"/><line transform="translate(0,150)" x2="-5" y2="0" stroke-width="1" opacity="1"/><line transform="translate(0,113)" x2="-5" y2="0" stroke-width="1" opacity="1"/><line transform="translate(0,75)" x2="-5" y2="0" stroke-width="1" opacity="1"/><line transform="translate(0,38)" x2="-5" y2="0" stroke-width="1" opacity="1"/><line transform="translate(0,0)" x2="-5" y2="0" stroke-width="1" opacity="1"/></g><g class="mark-text role-axis-label" pointer-events="none"><text text-anchor="end" transform="translate(-7,303)" font-family="sans-serif" font-size="10px" fill="#D3D3D3" opacity="1">0.00</text><text text-anchor="end" transform="translate(-7,265.5)" font-family="sans-serif" font-size="10px" fill="#D3D3D3" opacity="1">0.05</text><text text-anchor="end" transform="translate(-7,228)" font-family="sans-serif" font-size="10px" fill="#D3D3D3" opacity="1">0.10</text><text text-anchor="end" transform="translate(-7,190.5)" font-family="sans-serif" font-size="10px" fill="#D3D3D3" opacity="1">0.15</text><text text-anchor="end" transform="translate(-7,153)" font-family="sans-serif" font-size="10px" fill="#D3D3D3" opacity="1">0.20</text><text text-anchor="end" transform="translate(-7,115.5)" font-family="sans-serif" font-size="10px" fill="#D3D3D3" opacity="1">0.25</text><text text-anchor="end" transform="translate(-7,78.00000000000003)" font-family="sans-serif" font-size="10px" fill="#D3D3D3" opacity="1">0.30</text><text text-anchor="end" transform="translate(-7,40.500000000000036)" font-family="sans-serif" font-size="10px" fill="#D3D3D3" opacity="1">0.35</text><text text-anchor="end" transform="translate(-7,3)" font-family="sans-serif" font-size="10px" fill="#D3D3D3" opacity="1">0.40</text></g><g class="mark-rule role-axis-domain" pointer-events="none"><line transform="translate(0,300)" x2="0" y2="-300" stroke-width="1" opacity="1"/></g><g class="mark-text role-axis-title" pointer-events="none"><text text-anchor="middle" transform="translate(-30.462890625,150) rotate(-90) translate(0,-2)" font-family="sans-serif" font-size="11px" font-weight="bold" fill="#D3D3D3" opacity="1">gaussian pdf</text></g></g><path class="foreground" aria-hidden="true" d="" pointer-events="none" display="none"/></g></g><g class="mark-group role-scope layer_0_pathgroup" role="graphics-object" aria-roledescription="group mark container"><g transform="translate(0,0)"><path class="background" aria-hidden="true" d="M0,0h400v300h-400Z"/><g><g class="mark-area role-mark layer_0_marks" role="graphics-symbol" aria-roledescription="area mark container"><path d="M0,296.6761136910465L5.000000000000004,295.5356006851681L10.000000000000009,294.063411312765L15.000000000000014,292.1842988891831L20.000000000000018,289.8127730747358L25.00000000000002,286.8537746298236L30.00000000000003,283.20410227886777L35.00000000000003,278.75472169379907L40.000000000000036,273.3940553653264L45.00000000000004,267.0123030146795L50.00000000000004,259.5067751151089L55.00000000000005,250.78813891899244L60.00000000000006,240.78738127432928L65.00000000000006,229.46319196733467L70.00000000000006,216.80937399040815L75.00000000000007,202.861803250581L80.00000000000007,187.7044007731911L85.00000000000007,171.47355596414425L90.00000000000009,154.36045876259004L95.00000000000009,136.61086722558676L100.00000000000009,118.52195661064215L105.0000000000001,100.43606257593358L110.0000000000001,82.73133542888759L115.0000000000001,65.80954997492874L120.00000000000011,50.08154783114993L125.00000000000011,35.95100492677506L130.0000000000001,23.797394772507275L135.0000000000001,13.959138404606698L140.0000000000001,6.717979518407924L145.00000000000014,2.285589392241061L150.00000000000014,0.7932896989254812L155.00000000000014,2.2855893922412274L160.00000000000014,6.7179795184082565L165.00000000000014,13.959138404607163L170.00000000000014,23.79739477250784L175.00000000000014,35.951004926775795L180.00000000000017,50.08154783115073L185.00000000000017,65.80954997492961L190.00000000000017,82.73133542888856L195.00000000000017,100.43606257593454L200.00000000000017,118.52195661064312L205.00000000000017,136.61086722558764L210.0000000000002,154.36045876259092L215.00000000000023,171.47355596414516L220.0000000000002,187.70440077319196L225.00000000000017,202.8618032505817L230.0000000000002,216.80937399040886L235.00000000000023,229.46319196733535L240.00000000000023,240.78738127432985L245.0000000000002,250.78813891899293L250.00000000000023,259.50677511510935L255.00000000000026,267.01230301467996L260.0000000000002,273.39405536532666L265.0000000000002,278.7547216937993L270.0000000000002,283.204102278868L275.0000000000003,286.85377462982376L280.0000000000002,289.81277307473596L285.0000000000002,292.18429888918314L290.0000000000003,294.06341131276514L295.0000000000003,295.5356006851682L300.0000000000003,296.67611369104657L305.0000000000002,297.5498857078501L310.0000000000003,298.2119338489014L315.0000000000003,298.70807329570977L320.0000000000003,299.0758356236453L325.0000000000003,299.3454879787157L330.0000000000003,299.5410735524147L335.00000000000034,299.681414797087L340.0000000000003,299.7810398056564L345.0000000000003,299.8510083964554L350.0000000000003,299.89962733067637L355.00000000000034,299.93305375711714L360.00000000000034,299.9557926991826L365.0000000000003,299.9710986024434L370.00000000000034,299.98129314653244L375.00000000000034,299.9880121941698L380.00000000000034,299.99239436095087L385.00000000000034,299.99522263111584L390.00000000000034,299.99702902568174L395.0000000000004,299.99817077944056L395.0000000000004,300L390.00000000000034,300L385.00000000000034,300L380.00000000000034,300L375.00000000000034,300L370.00000000000034,300L365.0000000000003,300L360.00000000000034,300L355.00000000000034,300L350.0000000000003,300L345.0000000000003,300L340.0000000000003,300L335.00000000000034,300L330.0000000000003,300L325.0000000000003,300L320.0000000000003,300L315.0000000000003,300L310.0000000000003,300L305.0000000000002,300L300.0000000000003,300L295.0000000000003,300L290.0000000000003,300L285.0000000000002,300L280.0000000000002,300L275.0000000000003,300L270.0000000000002,300L265.0000000000002,300L260.0000000000002,300L255.00000000000026,300L250.00000000000023,300L245.0000000000002,300L240.00000000000023,300L235.00000000000023,300L230.0000000000002,300L225.00000000000017,300L220.0000000000002,300L215.00000000000023,300L210.0000000000002,300L205.00000000000017,300L200.00000000000017,300L195.00000000000017,300L190.00000000000017,300L185.00000000000017,300L180.00000000000017,300L175.00000000000014,300L170.00000000000014,300L165.00000000000014,300L160.00000000000014,300L155.00000000000014,300L150.00000000000014,300L145.00000000000014,300L140.0000000000001,300L135.0000000000001,300L130.0000000000001,300L125.00000000000011,300L120.00000000000011,300L115.0000000000001,300L110.0000000000001,300L105.0000000000001,300L100.00000000000009,300L95.00000000000009,300L90.00000000000009,300L85.00000000000007,300L80.00000000000007,300L75.00000000000007,300L70.00000000000006,300L65.00000000000006,300L60.00000000000006,300L55.00000000000005,300L50.00000000000004,300L45.00000000000004,300L40.000000000000036,300L35.00000000000003,300L30.00000000000003,300L25.00000000000002,300L20.000000000000018,300L15.000000000000014,300L10.000000000000009,300L5.000000000000004,300L0,300Z" fill="#2de2e6" fill-opacity="0.1" opacity="0.7"/></g></g><path class="foreground" aria-hidden="true" d="" display="none"/></g><g transform="translate(0,0)"><path class="background" aria-hidden="true" d="M0,0h400v300h-400Z"/><g><g class="mark-area role-mark layer_0_marks" role="graphics-symbol" aria-roledescription="area mark container"><path d="M0,299.99888496036397L5.000000000000004,299.99817077944056L10.000000000000009,299.99702902568174L15.000000000000014,299.99522263111584L20.000000000000018,299.99239436095087L25.00000000000002,299.9880121941698L30.00000000000003,299.98129314653244L35.00000000000003,299.9710986024434L40.000000000000036,299.9557926991826L45.00000000000004,299.93305375711714L50.00000000000004,299.89962733067637L55.00000000000005,299.8510083964554L60.00000000000006,299.7810398056564L65.00000000000006,299.6814147970869L70.00000000000006,299.5410735524147L75.00000000000007,299.34548797871565L80.00000000000007,299.0758356236453L85.00000000000007,298.7080732957097L90.00000000000009,298.21193384890137L95.00000000000009,297.5498857078501L100.00000000000009,296.6761136910465L105.0000000000001,295.5356006851681L110.0000000000001,294.06341131276497L115.0000000000001,292.184298889183L120.00000000000011,289.81277307473573L125.00000000000011,286.85377462982353L130.0000000000001,283.2041022788677L135.0000000000001,278.754721693799L140.0000000000001,273.39405536532627L145.00000000000014,267.01230301467945L150.00000000000014,259.5067751151087L155.00000000000014,250.78813891899227L160.00000000000014,240.78738127432908L165.00000000000014,229.46319196733447L170.00000000000014,216.80937399040795L175.00000000000014,202.86180325058075L180.00000000000017,187.70440077319083L185.00000000000017,171.4735559641439L190.00000000000017,154.3604587625897L195.00000000000017,136.61086722558647L200.00000000000017,118.52195661064184L205.00000000000017,100.4360625759333L210.0000000000002,82.73133542888729L215.00000000000023,65.80954997492834L220.0000000000002,50.08154783114966L225.00000000000017,35.9510049267749L230.0000000000002,23.79739477250704L235.00000000000023,13.95913840460653L240.00000000000023,6.717979518407824L245.0000000000002,2.285589392241061L250.00000000000023,0.7932896989254812L255.00000000000026,2.2855893922413273L260.0000000000002,6.717979518408357L265.0000000000002,13.959138404607296L270.0000000000002,23.797394772508042L275.0000000000003,35.951004926776065L280.0000000000002,50.081547831151L285.0000000000002,65.80954997492981L290.0000000000003,82.73133542888885L295.0000000000003,100.4360625759349L300.0000000000003,118.52195661064344L305.0000000000002,136.61086722558798L310.0000000000003,154.36045876259124L315.0000000000003,171.4735559641455L320.0000000000003,187.70440077319228L325.0000000000003,202.86180325058197L330.0000000000003,216.8093739904091L335.00000000000034,229.46319196733558L340.0000000000003,240.78738127433002L345.0000000000003,250.7881389189931L350.0000000000003,259.50677511510946L355.00000000000034,267.01230301468007L360.00000000000034,273.39405536532684L365.0000000000003,278.7547216937994L370.00000000000034,283.2041022788681L375.00000000000034,286.8537746298238L380.00000000000034,289.81277307473596L385.00000000000034,292.1842988891832L390.00000000000034,294.06341131276514L395.0000000000004,295.5356006851682L395.0000000000004,300L390.00000000000034,300L385.00000000000034,300L380.00000000000034,300L375.00000000000034,300L370.00000000000034,300L365.0000000000003,300L360.00000000000034,300L355.00000000000034,300L350.0000000000003,300L345.0000000000003,300L340.0000000000003,300L335.00000000000034,300L330.0000000000003,300L325.0000000000003,300L320.0000000000003,300L315.0000000000003,300L310.0000000000003,300L305.0000000000002,300L300.0000000000003,300L295.0000000000003,300L290.0000000000003,300L285.0000000000002,300L280.0000000000002,300L275.0000000000003,300L270.0000000000002,300L265.0000000000002,300L260.0000000000002,300L255.00000000000026,300L250.00000000000023,300L245.0000000000002,300L240.00000000000023,300L235.00000000000023,300L230.0000000000002,300L225.00000000000017,300L220.0000000000002,300L215.00000000000023,300L210.0000000000002,300L205.00000000000017,300L200.00000000000017,300L195.00000000000017,300L190.00000000000017,300L185.00000000000017,300L180.00000000000017,300L175.00000000000014,300L170.00000000000014,300L165.00000000000014,300L160.00000000000014,300L155.00000000000014,300L150.00000000000014,300L145.00000000000014,300L140.0000000000001,300L135.0000000000001,300L130.0000000000001,300L125.00000000000011,300L120.00000000000011,300L115.0000000000001,300L110.0000000000001,300L105.0000000000001,300L100.00000000000009,300L95.00000000000009,300L90.00000000000009,300L85.00000000000007,300L80.00000000000007,300L75.00000000000007,300L70.00000000000006,300L65.00000000000006,300L60.00000000000006,300L55.00000000000005,300L50.00000000000004,300L45.00000000000004,300L40.000000000000036,300L35.00000000000003,300L30.00000000000003,300L25.00000000000002,300L20.000000000000018,300L15.000000000000014,300L10.000000000000009,300L5.000000000000004,300L0,300Z" fill="#fe53bb" fill-opacity="0.1" opacity="0.7"/></g></g><path class="foreground" aria-hidden="true" d="" display="none"/></g></g><g class="mark-group role-scope layer_1_pathgroup" role="graphics-object" aria-roledescription="group mark container"><g transform="translate(0,0)"><path class="background" aria-hidden="true" d="M0,0h400v300h-400Z"/><g><g class="mark-line role-mark layer_1_marks" role="graphics-symbol" aria-roledescription="line mark container"><path d="M0,296.6761136910465L5.000000000000004,295.5356006851681L10.000000000000009,294.063411312765L15.000000000000014,292.1842988891831L20.000000000000018,289.8127730747358L25.00000000000002,286.8537746298236L30.00000000000003,283.20410227886777L35.00000000000003,278.75472169379907L40.000000000000036,273.3940553653264L45.00000000000004,267.0123030146795L50.00000000000004,259.5067751151089L55.00000000000005,250.78813891899244L60.00000000000006,240.78738127432928L65.00000000000006,229.46319196733467L70.00000000000006,216.80937399040815L75.00000000000007,202.861803250581L80.00000000000007,187.7044007731911L85.00000000000007,171.47355596414425L90.00000000000009,154.36045876259004L95.00000000000009,136.61086722558676L100.00000000000009,118.52195661064215L105.0000000000001,100.43606257593358L110.0000000000001,82.73133542888759L115.0000000000001,65.80954997492874L120.00000000000011,50.08154783114993L125.00000000000011,35.95100492677506L130.0000000000001,23.797394772507275L135.0000000000001,13.959138404606698L140.0000000000001,6.717979518407924L145.00000000000014,2.285589392241061L150.00000000000014,0.7932896989254812L155.00000000000014,2.2855893922412274L160.00000000000014,6.7179795184082565L165.00000000000014,13.959138404607163L170.00000000000014,23.79739477250784L175.00000000000014,35.951004926775795L180.00000000000017,50.08154783115073L185.00000000000017,65.80954997492961L190.00000000000017,82.73133542888856L195.00000000000017,100.43606257593454L200.00000000000017,118.52195661064312L205.00000000000017,136.61086722558764L210.0000000000002,154.36045876259092L215.00000000000023,171.47355596414516L220.0000000000002,187.70440077319196L225.00000000000017,202.8618032505817L230.0000000000002,216.80937399040886L235.00000000000023,229.46319196733535L240.00000000000023,240.78738127432985L245.0000000000002,250.78813891899293L250.00000000000023,259.50677511510935L255.00000000000026,267.01230301467996L260.0000000000002,273.39405536532666L265.0000000000002,278.7547216937993L270.0000000000002,283.204102278868L275.0000000000003,286.85377462982376L280.0000000000002,289.81277307473596L285.0000000000002,292.18429888918314L290.0000000000003,294.06341131276514L295.0000000000003,295.5356006851682L300.0000000000003,296.67611369104657L305.0000000000002,297.5498857078501L310.0000000000003,298.2119338489014L315.0000000000003,298.70807329570977L320.0000000000003,299.0758356236453L325.0000000000003,299.3454879787157L330.0000000000003,299.5410735524147L335.00000000000034,299.681414797087L340.0000000000003,299.7810398056564L345.0000000000003,299.8510083964554L350.0000000000003,299.89962733067637L355.00000000000034,299.93305375711714L360.00000000000034,299.9557926991826L365.0000000000003,299.9710986024434L370.00000000000034,299.98129314653244L375.00000000000034,299.9880121941698L380.00000000000034,299.99239436095087L385.00000000000034,299.99522263111584L390.00000000000034,299.99702902568174L395.0000000000004,299.99817077944056" stroke="#2de2e6" stroke-width="2"/></g></g><path class="foreground" aria-hidden="true" d="" display="none"/></g><g transform="translate(0,0)"><path class="background" aria-hidden="true" d="M0,0h400v300h-400Z"/><g><g class="mark-line role-mark layer_1_marks" role="graphics-symbol" aria-roledescription="line mark container"><path d="M0,299.99888496036397L5.000000000000004,299.99817077944056L10.000000000000009,299.99702902568174L15.000000000000014,299.99522263111584L20.000000000000018,299.99239436095087L25.00000000000002,299.9880121941698L30.00000000000003,299.98129314653244L35.00000000000003,299.9710986024434L40.000000000000036,299.9557926991826L45.00000000000004,299.93305375711714L50.00000000000004,299.89962733067637L55.00000000000005,299.8510083964554L60.00000000000006,299.7810398056564L65.00000000000006,299.6814147970869L70.00000000000006,299.5410735524147L75.00000000000007,299.34548797871565L80.00000000000007,299.0758356236453L85.00000000000007,298.7080732957097L90.00000000000009,298.21193384890137L95.00000000000009,297.5498857078501L100.00000000000009,296.6761136910465L105.0000000000001,295.5356006851681L110.0000000000001,294.06341131276497L115.0000000000001,292.184298889183L120.00000000000011,289.81277307473573L125.00000000000011,286.85377462982353L130.0000000000001,283.2041022788677L135.0000000000001,278.754721693799L140.0000000000001,273.39405536532627L145.00000000000014,267.01230301467945L150.00000000000014,259.5067751151087L155.00000000000014,250.78813891899227L160.00000000000014,240.78738127432908L165.00000000000014,229.46319196733447L170.00000000000014,216.80937399040795L175.00000000000014,202.86180325058075L180.00000000000017,187.70440077319083L185.00000000000017,171.4735559641439L190.00000000000017,154.3604587625897L195.00000000000017,136.61086722558647L200.00000000000017,118.52195661064184L205.00000000000017,100.4360625759333L210.0000000000002,82.73133542888729L215.00000000000023,65.80954997492834L220.0000000000002,50.08154783114966L225.00000000000017,35.9510049267749L230.0000000000002,23.79739477250704L235.00000000000023,13.95913840460653L240.00000000000023,6.717979518407824L245.0000000000002,2.285589392241061L250.00000000000023,0.7932896989254812L255.00000000000026,2.2855893922413273L260.0000000000002,6.717979518408357L265.0000000000002,13.959138404607296L270.0000000000002,23.797394772508042L275.0000000000003,35.951004926776065L280.0000000000002,50.081547831151L285.0000000000002,65.80954997492981L290.0000000000003,82.73133542888885L295.0000000000003,100.4360625759349L300.0000000000003,118.52195661064344L305.0000000000002,136.61086722558798L310.0000000000003,154.36045876259124L315.0000000000003,171.4735559641455L320.0000000000003,187.70440077319228L325.0000000000003,202.86180325058197L330.0000000000003,216.8093739904091L335.00000000000034,229.46319196733558L340.0000000000003,240.78738127433002L345.0000000000003,250.7881389189931L350.0000000000003,259.50677511510946L355.00000000000034,267.01230301468007L360.00000000000034,273.39405536532684L365.0000000000003,278.7547216937994L370.00000000000034,283.2041022788681L375.00000000000034,286.8537746298238L380.00000000000034,289.81277307473596L385.00000000000034,292.1842988891832L390.00000000000034,294.06341131276514L395.0000000000004,295.5356006851682" stroke="#fe53bb" stroke-width="2"/></g></g><path class="foreground" aria-hidden="true" d="" display="none"/></g></g><g class="mark-group role-legend" role="graphics-symbol" aria-roledescription="legend" aria-label="Symbol legend titled 'distribution' for fill color and stroke color with 2 values: left, right"><g transform="translate(418,0)"><path class="background" aria-hidden="true" d="M0,0h61v45h-61Z" pointer-events="none"/><g><g class="mark-group role-legend-entry"><g transform="translate(0,16)"><path class="background" aria-hidden="true" d="M0,0h0v0h0Z" pointer-events="none"/><g><g class="mark-group role-scope" role="graphics-object" aria-roledescription="group mark container"><g transform="translate(0,0)"><path class="background" aria-hidden="true" d="M0,0h35.453125v12.5h-35.453125Z" pointer-events="none" opacity="1"/><g><g class="mark-symbol role-legend-symbol" pointer-events="none"><path transform="translate(6,6)" d="M5,0A5,5,0,1,1,-5,0A5,5,0,1,1,5,0" fill="#2de2e6" fill-opacity="0.1" stroke="#2de2e6" stroke-width="1.5" opacity="0.7"/></g><g class="mark-text role-legend-label" pointer-events="none"><text text-anchor="start" transform="translate(16,9)" font-family="sans-serif" font-size="10px" fill="#D3D3D3" opacity="1">left</text></g></g><path class="foreground" aria-hidden="true" d="" pointer-events="none" display="none"/></g><g transform="translate(0,16)"><path class="background" aria-hidden="true" d="M0,0h35.453125v12.5h-35.453125Z" pointer-events="none" opacity="1"/><g><g class="mark-symbol role-legend-symbol" pointer-events="none"><path transform="translate(6,6)" d="M5,0A5,5,0,1,1,-5,0A5,5,0,1,1,5,0" fill="#fe53bb" fill-opacity="0.1" stroke="#fe53bb" stroke-width="1.5" opacity="0.7"/></g><g class="mark-text role-legend-label" pointer-events="none"><text text-anchor="start" transform="translate(16,9)" font-family="sans-serif" font-size="10px" fill="#D3D3D3" opacity="1">right</text></g></g><path class="foreground" aria-hidden="true" d="" pointer-events="none" display="none"/></g></g></g><path class="foreground" aria-hidden="true" d="" pointer-events="none" display="none"/></g></g><g class="mark-text role-legend-title" pointer-events="none"><text text-anchor="start" transform="translate(0,9)" font-family="sans-serif" font-size="11px" font-weight="bold" fill="#D3D3D3" opacity="1">distribution</text></g></g><path class="foreground" aria-hidden="true" d="" pointer-events="none" display="none"/></g></g></g><path class="foreground" aria-hidden="true" d="" display="none"/></g></g></g></svg>